<svg xmlns="http://www.w3.org/2000/svg" width="1080" height="1350" viewBox="0 0 1080 1350">
    <rect width="1080" height="1350" fill="#F7FBF9"/><rect x="65" y="58" width="950" height="1234" rx="44" fill="#FFFFFF" stroke="#DCEAE6" stroke-width="3"/>
    <text x="115" y="130" fill="#178371" font-family="Arial, sans-serif" font-size="26" font-weight="700" letter-spacing="2">HEALTHY PARENTING LAB · 03</text>
    <text x="115" y="224" fill="#0C2D4E" font-family="Arial, sans-serif" font-size="52" font-weight="800">안전한 가습기 배치</text>
    <text x="115" y="290" fill="#52697A" font-family="Arial, sans-serif" font-size="29">아이의 손과 얼굴에서 떨어뜨리기</text>
    <line x1="115" y1="342" x2="965" y2="342" stroke="#62BEA8" stroke-width="6" stroke-linecap="round"/>
    <rect x="115" y="430" width="850" height="170" rx="30" fill="#DDF3EB"/>
      <circle cx="190" cy="515" r="39" fill="#FFFFFF"/><text x="190" y="528" text-anchor="middle" fill="#0C2D4E" font-family="Arial, sans-serif" font-size="34" font-weight="800">1</text>
      <text x="260" y="506" fill="#0C2D4E" font-family="Arial, sans-serif" font-size="31" font-weight="750">평평하고 단단한 곳에 두기</text>
      <rect x="260" y="532" width="570" height="4" rx="2" fill="#FFFFFF" opacity=".75"/>
<rect x="115" y="650" width="850" height="170" rx="30" fill="#E8F0FA"/>
      <circle cx="190" cy="735" r="39" fill="#FFFFFF"/><text x="190" y="748" text-anchor="middle" fill="#0C2D4E" font-family="Arial, sans-serif" font-size="34" font-weight="800">2</text>
      <text x="260" y="726" fill="#0C2D4E" font-family="Arial, sans-serif" font-size="31" font-weight="750">분무가 얼굴로 직접 향하지 않기</text>
      <rect x="260" y="752" width="570" height="4" rx="2" fill="#FFFFFF" opacity=".75"/>
<rect x="115" y="870" width="850" height="170" rx="30" fill="#FFF1DA"/>
      <circle cx="190" cy="955" r="39" fill="#FFFFFF"/><text x="190" y="968" text-anchor="middle" fill="#0C2D4E" font-family="Arial, sans-serif" font-size="34" font-weight="800">3</text>
      <text x="260" y="946" fill="#0C2D4E" font-family="Arial, sans-serif" font-size="31" font-weight="750">증기식은 화상·넘어짐 특히 주의</text>
      <rect x="260" y="972" width="570" height="4" rx="2" fill="#FFFFFF" opacity=".75"/>
    <rect x="115" y="1130" width="850" height="88" rx="22" fill="#F1F7F5"/>
    <text x="540" y="1184" text-anchor="middle" fill="#49665F" font-family="Arial, sans-serif" font-size="23">개인 상태가 걱정되면 의료진의 안내를 우선하세요.</text>
    <text x="115" y="1260" fill="#178371" font-family="Arial, sans-serif" font-size="24" font-weight="700">Healthy Parenting Lab</text>
  </svg>